<svg xmlns="http://www.w3.org/2000/svg" xmlns:xlink="http://www.w3.org/1999/xlink" version="1.1" x="0px" y="0px" viewBox="0 0 100 125" style="enable-background:new 0 0 100 100;" xml:space="preserve"><path d="M64.6,50c0-2.6,2-4.8,4.6-5.1L84.6,30l-20.5,5.9C63.2,37.2,61.7,38,60,38c-2.9,0-5.2-2.3-5.2-5.2c0-0.7,0.1-1.3,0.4-1.9  L50,10l-5.1,20.6c0.3,0.7,0.5,1.4,0.5,2.3c0,2.9-2.3,5.2-5.2,5.2c-1.6,0-3-0.7-4-1.9L15.4,30l15.4,14.9c2.6,0.3,4.5,2.5,4.5,5.1  c0,2.6-2,4.8-4.5,5.1L15.4,70L36,64c0.9-1.2,2.4-2,4.1-2c2.9,0,5.2,2.3,5.2,5.2c0,0.7-0.1,1.4-0.4,2L50,90l5.2-20.9  c-0.2-0.6-0.4-1.2-0.4-1.9c0-2.9,2.3-5.2,5.2-5.2c1.7,0,3.3,0.8,4.2,2.1L84.6,70L69.2,55.1C66.6,54.8,64.6,52.6,64.6,50z M50,56.5  c-3.6,0-6.5-2.9-6.5-6.5c0-3.6,2.9-6.5,6.5-6.5c3.6,0,6.5,2.9,6.5,6.5C56.5,53.6,53.6,56.5,50,56.5z"/><text x="0" y="115" fill="#000000" font-size="5px" font-weight="bold" font-family="'Helvetica Neue', Helvetica, Arial-Unicode, Arial, Sans-serif">Created by Musmellow</text><text x="0" y="120" fill="#000000" font-size="5px" font-weight="bold" font-family="'Helvetica Neue', Helvetica, Arial-Unicode, Arial, Sans-serif">from the Noun Project</text></svg>